<svg width="31" height="32" viewBox="0 0 31 32" fill="none" xmlns="http://www.w3.org/2000/svg">
<path d="M15.5 17.2917C16.2134 17.2917 16.7917 16.7134 16.7917 16C16.7917 15.2866 16.2134 14.7083 15.5 14.7083C14.7866 14.7083 14.2083 15.2866 14.2083 16C14.2083 16.7134 14.7866 17.2917 15.5 17.2917Z" stroke="black" stroke-width="2.58333" stroke-linecap="round" stroke-linejoin="round"/>
<path d="M24.5417 17.2917C25.255 17.2917 25.8333 16.7134 25.8333 16C25.8333 15.2866 25.255 14.7083 24.5417 14.7083C23.8283 14.7083 23.25 15.2866 23.25 16C23.25 16.7134 23.8283 17.2917 24.5417 17.2917Z" stroke="black" stroke-width="2.58333" stroke-linecap="round" stroke-linejoin="round"/>
<path d="M6.45833 17.2917C7.1717 17.2917 7.75 16.7134 7.75 16C7.75 15.2866 7.1717 14.7083 6.45833 14.7083C5.74496 14.7083 5.16666 15.2866 5.16666 16C5.16666 16.7134 5.74496 17.2917 6.45833 17.2917Z" stroke="black" stroke-width="2.58333" stroke-linecap="round" stroke-linejoin="round"/>
</svg>
