<svg width="24" height="25" viewBox="0 0 24 25" fill="none" xmlns="http://www.w3.org/2000/svg">
<path d="M20.83 8.51L14.28 3.27C13 2.25 11 2.24 9.73002 3.26L3.18002 8.51C2.24002 9.26 1.67002 10.76 1.87002 11.94L3.13002 19.48C3.42002 21.17 4.99002 22.5 6.70002 22.5H17.3C18.99 22.5 20.59 21.14 20.88 19.47L22.14 11.93C22.32 10.76 21.75 9.26 20.83 8.51ZM12.75 18.5C12.75 18.91 12.41 19.25 12 19.25C11.59 19.25 11.25 18.91 11.25 18.5V15.5C11.25 15.09 11.59 14.75 12 14.75C12.41 14.75 12.75 15.09 12.75 15.5V18.5Z" fill="white"/>
</svg>
