<svg width="16" height="17" viewBox="0 0 16 17" fill="none" xmlns="http://www.w3.org/2000/svg">
<path d="M11.3333 9.12044L8.66667 15.1204C8.13624 15.1204 7.62753 14.9097 7.25246 14.5347C6.87739 14.1596 6.66667 13.6509 6.66667 13.1204V10.4538H2.89334C2.70007 10.456 2.50863 10.4161 2.33229 10.337C2.15595 10.2578 1.99893 10.1413 1.8721 9.99543C1.74527 9.84958 1.65167 9.67789 1.59778 9.49227C1.54389 9.30665 1.531 9.11154 1.56 8.92044L2.48001 2.92044C2.52822 2.6025 2.68972 2.3127 2.93473 2.10444C3.17975 1.89617 3.49179 1.78347 3.81334 1.78711H11.3333M11.3333 9.12044V1.78711M11.3333 9.12044H13.1133C13.4906 9.12711 13.8573 8.99502 14.1436 8.74923C14.43 8.50344 14.6161 8.16107 14.6667 7.78711V3.12044C14.6161 2.74648 14.43 2.40411 14.1436 2.15832C13.8573 1.91253 13.4906 1.78043 13.1133 1.78711H11.3333" stroke="black" stroke-linecap="round" stroke-linejoin="round"/>
</svg>
