<svg width="24" height="25" viewBox="0 0 24 25" fill="none" xmlns="http://www.w3.org/2000/svg">
<path d="M16.19 2.5H7.81C4.17 2.5 2 4.67 2 8.31V16.68C2 20.33 4.17 22.5 7.81 22.5H16.18C19.82 22.5 21.99 20.33 21.99 16.69V8.31C22 4.67 19.83 2.5 16.19 2.5ZM15.76 16.26C15.7 17.11 15.63 18.17 13.71 18.17H10.29C8.38 18.17 8.3 17.11 8.24 16.26L7.93 12.3C7.92056 12.1732 7.93697 12.0457 7.97822 11.9254C8.01947 11.8051 8.08472 11.6944 8.17 11.6C8.25522 11.5075 8.35887 11.434 8.47427 11.384C8.58967 11.3341 8.71426 11.3089 8.84 11.31H15.16C15.41 11.31 15.66 11.42 15.83 11.6C16 11.79 16.09 12.04 16.07 12.29L15.76 16.26ZM16.8 10.32H16.74C15.7 10.22 14.75 10.15 13.84 10.11C12.6177 10.045 11.3932 10.035 10.17 10.08C9.57 10.11 8.96 10.15 8.36 10.21L7.27 10.32H7.2C6.85 10.32 6.55 10.06 6.52 9.7C6.48 9.33 6.76 8.99 7.13 8.96L8.22 8.85C8.65 8.81 9.07 8.78 9.5 8.76L9.58 8.29C9.66 7.79 9.81 6.83 11.31 6.83H12.7C14.21 6.83 14.36 7.82 14.43 8.3L14.51 8.78C15.26 8.82 16.03 8.88 16.87 8.96C17.25 9 17.52 9.33 17.49 9.71C17.45 10.06 17.15 10.32 16.8 10.32Z" fill="white"/>
</svg>
