<svg width="37" height="38" viewBox="0 0 37 38" fill="none" xmlns="http://www.w3.org/2000/svg">
<path d="M30.9875 14.7157C28.1971 14.7157 27.0563 12.7424 28.4438 10.3219C29.2454 8.91903 28.7675 7.1307 27.3646 6.32903L24.6975 4.80278C23.4796 4.0782 21.9071 4.50986 21.1825 5.72778L21.0129 6.0207C19.6254 8.44111 17.3438 8.44111 15.9408 6.0207L15.7713 5.72778C15.6051 5.43638 15.3826 5.18093 15.1168 4.97632C14.8509 4.7717 14.547 4.622 14.2228 4.53592C13.8986 4.44984 13.5605 4.4291 13.2281 4.47492C12.8958 4.52073 12.5759 4.63218 12.2871 4.80278L9.62001 6.32903C8.21709 7.1307 7.73918 8.93445 8.54084 10.3374C9.94376 12.7424 8.80293 14.7157 6.01251 14.7157C4.40918 14.7157 3.08334 16.0261 3.08334 17.6449V20.3582C3.08334 21.9615 4.39376 23.2874 6.01251 23.2874C8.80293 23.2874 9.94376 25.2607 8.54084 27.6811C7.73918 29.084 8.21709 30.8724 9.62001 31.674L12.2871 33.2003C13.505 33.9249 15.0775 33.4932 15.8021 32.2753L15.9717 31.9824C17.3592 29.5619 19.6408 29.5619 21.0438 31.9824L21.2133 32.2753C21.9379 33.4932 23.5104 33.9249 24.7283 33.2003L27.3954 31.674C28.7983 30.8724 29.2763 29.0686 28.4746 27.6811C27.0717 25.2607 28.2125 23.2874 31.0029 23.2874C32.6063 23.2874 33.9321 21.9769 33.9321 20.3582V17.6449C33.924 16.8678 33.6107 16.1252 33.0598 15.5771C32.5089 15.0291 31.7646 14.7197 30.9875 14.7157ZM18.5 24.0119C15.7404 24.0119 13.4896 21.7611 13.4896 19.0015C13.4896 16.2419 15.7404 13.9911 18.5 13.9911C21.2596 13.9911 23.5104 16.2419 23.5104 19.0015C23.5104 21.7611 21.2596 24.0119 18.5 24.0119Z" fill="white"/>
</svg>
