<svg width="24" height="25" viewBox="0 0 24 25" fill="none" xmlns="http://www.w3.org/2000/svg">
<path d="M9.00002 2.5C6.38002 2.5 4.25002 4.63 4.25002 7.25C4.25002 9.82 6.26002 11.9 8.88002 11.99C8.96002 11.98 9.04002 11.98 9.10002 11.99H9.17002C10.3994 11.949 11.5646 11.4315 12.4193 10.5469C13.274 9.66234 13.7512 8.48004 13.75 7.25C13.75 4.63 11.62 2.5 9.00002 2.5ZM14.08 14.649C11.29 12.789 6.74002 12.789 3.93002 14.649C2.66002 15.499 1.96002 16.649 1.96002 17.879C1.96002 19.109 2.66002 20.249 3.92002 21.089C5.32002 22.029 7.16002 22.499 9.00002 22.499C10.84 22.499 12.68 22.029 14.08 21.089C15.34 20.239 16.04 19.099 16.04 17.859C16.03 16.629 15.34 15.489 14.08 14.649ZM19.99 7.838C20.15 9.778 18.77 11.478 16.86 11.708H16.81C16.75 11.708 16.69 11.708 16.64 11.728C15.67 11.778 14.78 11.468 14.11 10.898C15.14 9.978 15.73 8.598 15.61 7.098C15.5414 6.318 15.2765 5.56806 14.84 4.918C15.364 4.66308 15.9421 4.53947 16.5246 4.55782C17.107 4.57617 17.6762 4.73595 18.1831 5.02335C18.69 5.31076 19.1194 5.71717 19.4342 6.20753C19.749 6.69789 19.9397 7.25747 19.99 7.838Z" fill="white"/>
<path d="M21.988 17.09C21.908 18.06 21.288 18.9 20.248 19.47C19.248 20.02 17.988 20.28 16.738 20.25C17.458 19.6 17.878 18.79 17.958 17.93C18.058 16.69 17.468 15.5 16.288 14.55C15.618 14.02 14.838 13.6 13.988 13.29C16.198 12.65 18.978 13.08 20.688 14.46C21.608 15.2 22.078 16.13 21.988 17.09Z" fill="white"/>
</svg>
