<svg width="16" height="17" viewBox="0 0 16 17" fill="none" xmlns="http://www.w3.org/2000/svg">
<path d="M4.66667 7.78711L7.33334 1.78711C7.86377 1.78711 8.37248 1.99782 8.74755 2.3729C9.12262 2.74797 9.33334 3.25668 9.33334 3.78711V6.45378H13.1067C13.2999 6.45159 13.4914 6.49144 13.6677 6.57059C13.8441 6.64973 14.0011 6.76627 14.1279 6.91212C14.2547 7.05797 14.3483 7.22966 14.4022 7.41528C14.4561 7.6009 14.469 7.79601 14.44 7.98711L13.52 13.9871C13.4718 14.305 13.3103 14.5948 13.0653 14.8031C12.8203 15.0114 12.5082 15.1241 12.1867 15.1204H4.66667M4.66667 7.78711V15.1204M4.66667 7.78711H2.66667C2.31305 7.78711 1.97391 7.92759 1.72386 8.17763C1.47381 8.42768 1.33334 8.76682 1.33334 9.12044V13.7871C1.33334 14.1407 1.47381 14.4799 1.72386 14.7299C1.97391 14.98 2.31305 15.1204 2.66667 15.1204H4.66667" stroke="black" stroke-linecap="round" stroke-linejoin="round"/>
</svg>
