<svg width="24" height="24" viewBox="0 0 24 24" fill="none" xmlns="http://www.w3.org/2000/svg">
<path d="M10.51 11.22L8.31 2.39C8.28374 2.27766 8.21981 2.17769 8.12884 2.10674C8.03787 2.03578 7.92535 1.99811 7.81 2C4.6 2 2 4.6 2 7.81V13.51C2 13.85 2.33 14.1 2.66 14L10.16 11.83C10.2869 11.7949 10.3948 11.7111 10.4604 11.5969C10.5259 11.4827 10.5437 11.3473 10.51 11.22ZM11.12 13.679C11.1032 13.6121 11.0732 13.5493 11.0316 13.4943C10.9901 13.4393 10.938 13.3931 10.8783 13.3586C10.8186 13.3241 10.7526 13.3019 10.6842 13.2934C10.6158 13.2849 10.5463 13.2902 10.48 13.309L2.37 15.669C2.15 15.739 2 15.939 2 16.169V16.189C2 19.399 4.6 21.999 7.81 21.999H12.53C12.86 21.999 13.11 21.689 13.03 21.359L11.12 13.679ZM16.19 2H10.44C10.11 2 9.86 2.31 9.94 2.64L14.68 21.61C14.74 21.84 14.94 22 15.18 22H16.18C19.4 22 22 19.4 22 16.19V7.81C22 4.6 19.4 2 16.19 2Z" fill="white"/>
</svg>
