<svg width="16" height="17" viewBox="0 0 16 17" fill="none" xmlns="http://www.w3.org/2000/svg">
<path d="M14 8.12042C14.0023 9.00033 13.7967 9.86834 13.4 10.6538C12.9296 11.5949 12.2065 12.3865 11.3116 12.9399C10.4168 13.4933 9.3855 13.7867 8.33333 13.7871C7.45342 13.7894 6.58541 13.5838 5.8 13.1871L2 14.4538L3.26667 10.6538C2.86995 9.86834 2.66437 9.00033 2.66667 8.12042C2.66707 7.06826 2.96041 6.03699 3.51381 5.14212C4.06722 4.24725 4.85884 3.52413 5.8 3.05375C6.58541 2.65704 7.45342 2.45146 8.33333 2.45375H8.66667C10.0562 2.53042 11.3687 3.11693 12.3528 4.10099C13.3368 5.08506 13.9233 6.39752 14 7.78709V8.12042Z" stroke="black" stroke-linecap="round" stroke-linejoin="round"/>
</svg>
