<svg width="31" height="31" viewBox="0 0 31 31" fill="none" xmlns="http://www.w3.org/2000/svg">
<path d="M15.5 16.7917C16.2133 16.7917 16.7916 16.2134 16.7916 15.5C16.7916 14.7866 16.2133 14.2083 15.5 14.2083C14.7866 14.2083 14.2083 14.7866 14.2083 15.5C14.2083 16.2134 14.7866 16.7917 15.5 16.7917Z" stroke="black" stroke-width="2.58333" stroke-linecap="round" stroke-linejoin="round"/>
<path d="M24.5417 16.7917C25.255 16.7917 25.8333 16.2134 25.8333 15.5C25.8333 14.7866 25.255 14.2083 24.5417 14.2083C23.8283 14.2083 23.25 14.7866 23.25 15.5C23.25 16.2134 23.8283 16.7917 24.5417 16.7917Z" stroke="black" stroke-width="2.58333" stroke-linecap="round" stroke-linejoin="round"/>
<path d="M6.45835 16.7917C7.17172 16.7917 7.75002 16.2134 7.75002 15.5C7.75002 14.7866 7.17172 14.2083 6.45835 14.2083C5.74499 14.2083 5.16669 14.7866 5.16669 15.5C5.16669 16.2134 5.74499 16.7917 6.45835 16.7917Z" stroke="black" stroke-width="2.58333" stroke-linecap="round" stroke-linejoin="round"/>
</svg>
