<svg width="45" height="44" viewBox="0 0 45 44" fill="none" xmlns="http://www.w3.org/2000/svg">
<path d="M14.7083 6.41667V3.66667C14.7083 2.91501 14.085 2.29167 13.3333 2.29167C12.5816 2.29167 11.9583 2.91501 11.9583 3.66667V6.52667C12.4166 6.47167 12.8383 6.41667 13.3333 6.41667H14.7083ZM29.375 6.52667V3.66667C29.375 2.91501 28.7516 2.29167 28 2.29167C27.2483 2.29167 26.625 2.91501 26.625 3.66667V6.41667H28C28.495 6.41667 28.9166 6.47167 29.375 6.52667ZM39.5316 27.445C38.0692 26.2873 36.2571 25.6605 34.3919 25.6672C32.5267 25.6738 30.7191 26.3136 29.265 27.4817C27.3583 28.985 26.1666 31.3317 26.1666 33.9167C26.1666 35.4567 26.6066 36.9417 27.3583 38.1517C27.945 39.105 28.6966 39.9483 29.595 40.59C30.9516 41.58 32.6016 42.1667 34.4166 42.1667C36.5066 42.1667 38.395 41.3967 39.8433 40.1133C40.485 39.5817 41.035 38.9217 41.475 38.17C42.5144 36.4528 42.8906 34.4149 42.5327 32.4398C42.1748 30.4647 41.1075 28.6883 39.5316 27.445ZM34.4166 37.84C34.4166 35.6767 32.6566 33.9167 30.4933 33.9167C32.6566 33.9167 34.4166 32.1567 34.4166 29.9933C34.4166 32.1567 36.1766 33.9167 38.34 33.9167C36.1766 33.9167 34.4166 35.6767 34.4166 37.84Z" fill="#274AC7"/>
<path d="M29.375 6.52667V9.16667C29.375 9.91834 28.7517 10.5417 28 10.5417C27.2484 10.5417 26.625 9.91834 26.625 9.16667V6.41667H14.7084V9.16667C14.7084 9.91834 14.085 10.5417 13.3334 10.5417C12.5817 10.5417 11.9584 9.91834 11.9584 9.16667V6.52667C6.55002 7.02167 4.16669 10.505 4.16669 15.5833V31.1667C4.16669 36.6667 6.91669 40.3333 13.3334 40.3333H20.905C22.2984 40.3333 23.2334 38.775 22.885 37.4183C22.6284 36.4283 22.5 35.4017 22.5 34.375C22.5 30.5617 24.205 27.0417 27.1567 24.7133C29.3443 22.9543 32.0679 21.9968 34.875 22H34.9484C36.1034 22 37.1667 21.1567 37.1667 20.0017V15.5833C37.1667 10.505 34.7834 7.02167 29.375 6.52667ZM17 30.7083H13.3334C12.5817 30.7083 11.9584 30.085 11.9584 29.3333C11.9584 28.5817 12.5817 27.9583 13.3334 27.9583H17C17.7517 27.9583 18.375 28.5817 18.375 29.3333C18.375 30.085 17.7517 30.7083 17 30.7083ZM22.5 21.5417H13.3334C12.5817 21.5417 11.9584 20.9183 11.9584 20.1667C11.9584 19.415 12.5817 18.7917 13.3334 18.7917H22.5C23.2517 18.7917 23.875 19.415 23.875 20.1667C23.875 20.9183 23.2517 21.5417 22.5 21.5417Z" fill="#274AC7"/>
</svg>
