<svg width="54" height="54" viewBox="0 0 54 54" fill="none" xmlns="http://www.w3.org/2000/svg">
<path d="M36.1041 5.27167H17.8957C9.98661 5.27167 5.27155 9.98673 5.27155 17.8959V36.1043C5.27155 42.2099 8.07451 46.4035 13.0069 47.9897C14.4409 48.4894 16.0923 48.7285 17.8957 48.7285H36.1041C37.9076 48.7285 39.559 48.4894 40.993 47.9897C45.9254 46.4035 48.7283 42.2099 48.7283 36.1043V17.8959C48.7283 9.98673 44.0133 5.27167 36.1041 5.27167ZM45.4691 36.1043C45.4691 40.7541 43.6439 43.6875 39.9718 44.9043C37.8641 40.7541 32.8666 37.7991 26.9999 37.7991C21.1333 37.7991 16.1575 40.7324 14.0281 44.9043H14.0064C10.3777 43.7309 8.5308 40.7759 8.5308 36.126V17.8959C8.5308 11.7685 11.7683 8.53093 17.8957 8.53093H36.1041C42.2315 8.53093 45.4691 11.7685 45.4691 17.8959V36.1043Z" fill="black"/>
<path d="M27.0043 18.3087C22.7021 18.3087 19.2255 21.7852 19.2255 26.0875C19.2255 30.3897 22.7021 33.8879 27.0043 33.8879C31.3065 33.8879 34.7831 30.3897 34.7831 26.0875C34.7831 21.7852 31.3065 18.3087 27.0043 18.3087Z" fill="black"/>
</svg>
